<?xml version="1.0" encoding="UTF-8" standalone="no"?>
<svg
   xmlns:dc="http://purl.org/dc/elements/1.1/"
   xmlns:cc="http://creativecommons.org/ns#"
   xmlns:rdf="http://www.w3.org/1999/02/22-rdf-syntax-ns#"
   xmlns:svg="http://www.w3.org/2000/svg"
   xmlns="http://www.w3.org/2000/svg"
   xmlns:sodipodi="http://sodipodi.sourceforge.net/DTD/sodipodi-0.dtd"
   xmlns:inkscape="http://www.inkscape.org/namespaces/inkscape"
   width="100.29469mm"
   height="100.29468mm"
   viewBox="0 0 100.29468 100.29468"
   version="1.1"
   id="svg8"
   inkscape:version="1.0.2 (e86c8708, 2021-01-15)"
   sodipodi:docname="pcb_top.svg">
  <defs
     id="defs2" />
  <sodipodi:namedview
     id="base"
     pagecolor="#ffffff"
     bordercolor="#666666"
     borderopacity="1.0"
     inkscape:pageopacity="0.0"
     inkscape:pageshadow="2"
     inkscape:zoom="1.6736957"
     inkscape:cx="46.545064"
     inkscape:cy="195.24208"
     inkscape:document-units="mm"
     inkscape:current-layer="svg8"
     inkscape:document-rotation="0"
     showgrid="false"
     fit-margin-top="0"
     fit-margin-left="0"
     fit-margin-right="0"
     fit-margin-bottom="0"
     inkscape:window-width="1440"
     inkscape:window-height="789"
     inkscape:window-x="0"
     inkscape:window-y="25"
     inkscape:window-maximized="0" />
  <metadata
     id="metadata5">
    <rdf:RDF>
      <cc:Work
         rdf:about="">
        <dc:format>image/svg+xml</dc:format>
        <dc:type
           rdf:resource="http://purl.org/dc/dcmitype/StillImage" />
        <dc:title />
      </cc:Work>
    </rdf:RDF>
  </metadata>
  <g
     inkscape:label="Layer 1"
     inkscape:groupmode="layer"
     id="layer1"
     transform="translate(-1.1646096,0.3472899)"
     style="display:none" />
  <g
     id="board"
     transform="translate(-0.50865713,0.24728996)"
     style="fill:#e6e6e6;fill-opacity:0.7651822">
    <path
       id="boardoutline"
       style="fill:#b3b3b3;fill-opacity:0.46153846;stroke:none;stroke-width:0.397323;stroke-linejoin:round;stroke-dashoffset:11.1005;paint-order:markers stroke fill"
       d="M 63.498047,0.19921875 V 169.32422 H 0.19921875 v 180.4736 c 0,10.82156 15.44992425,27.95609 26.27148425,27.95609 H 353.16602 c 10.82156,0 24.58789,-15.44993 24.58789,-26.27149 V 169.31641 H 315.21094 V 0.19921875 Z M 74.957031,45.65625 c 1.184962,-0.0089 2.341666,0.361364 3.300781,1.056641 2.468606,1.789778 3.028633,5.23455 1.253907,7.71289 l -0.09375,0.126953 c -1.844244,2.426309 -5.302588,2.911262 -7.744141,1.085938 -2.441525,-1.825012 -2.951754,-5.276257 -1.142578,-7.728516 1.037507,-1.405885 2.677505,-2.241083 4.425781,-2.253906 z m 227.999999,0 c 1.18496,-0.0089 2.34167,0.361364 3.30078,1.056641 2.46861,1.789777 3.02863,5.234549 1.25391,7.71289 l -0.0937,0.126953 c -1.84424,2.426308 -5.30259,2.911261 -7.74414,1.085938 -2.44153,-1.825011 -2.95176,-5.276257 -1.14258,-7.728516 1.03751,-1.405885 2.6775,-2.241083 4.42578,-2.253906 z m -227.999999,68 c 1.184962,-0.009 2.341666,0.36136 3.300781,1.05664 2.468606,1.78978 3.028633,5.23455 1.253907,7.71289 l -0.09375,0.12695 c -1.844243,2.42631 -5.302587,2.91126 -7.744141,1.08594 -2.441521,-1.82501 -2.95175,-5.27625 -1.142578,-7.72851 1.037506,-1.40589 2.677505,-2.24109 4.425781,-2.25391 z m 227.999999,0 c 1.18496,-0.009 2.34167,0.36136 3.30078,1.05664 2.46861,1.78978 3.02864,5.23455 1.25391,7.71289 l -0.0937,0.12695 c -1.84424,2.42631 -5.30259,2.91126 -7.74414,1.08594 -2.44152,-1.82501 -2.95175,-5.27625 -1.14258,-7.72851 1.03751,-1.40589 2.6775,-2.24109 4.42578,-2.25391 z m 56.71094,243.12695 c 1.14181,0.003 2.25373,0.36555 3.17773,1.03711 2.41555,1.75464 2.96419,5.13195 1.22852,7.5625 l -0.0918,0.125 c -1.80433,2.37957 -5.18846,2.8558 -7.57812,1.06641 -2.39032,-1.78947 -2.89014,-5.17481 -1.11914,-7.58008 1.02601,-1.39354 2.65359,-2.21458 4.38281,-2.21094 z m -340.363282,0.002 c 1.142477,0.002 2.255146,0.36516 3.179687,1.03711 2.414901,1.75525 2.962651,5.13246 1.226563,7.5625 l -0.0918,0.12304 c -1.803742,2.38022 -5.187959,2.85732 -7.578125,1.06836 -2.390321,-1.78947 -2.89014,-5.17481 -1.119141,-7.58008 1.026015,-1.39353 2.653596,-2.21457 4.382813,-2.21093 z"
       sodipodi:nodetypes="cccsssscccccccccccccccccccccccccccccccccccccsccccccsc"
       transform="matrix(0.26458333,0,0,0.26458333,0.65595249,-0.09999994)" />
  </g>
  <g
     id="silkscreen"
     transform="translate(-0.50866721,0.24728996)">
    <path
       id="outline"
       style="fill:none;fill-opacity:0.546559;stroke:#000000;stroke-width:0.4;stroke-linejoin:round;stroke-miterlimit:4;stroke-dasharray:none;stroke-dashoffset:11.1005;stroke-opacity:1;paint-order:markers stroke fill"
       d="M 17.456477,-0.04728996 V 44.700366 H 0.70866721 v 47.750309 c 0,2.8632 4.08778999,7.39671 6.95098999,7.39671 H 94.097797 c 2.8632,0 6.505553,-4.08779 6.505553,-6.951 V 44.698299 H 84.055517 V -0.04728996 Z m 3.03186,12.02717196 c 0.31352,-0.0024 0.61956,0.09561 0.87333,0.27957 0.65315,0.473545 0.80133,1.384975 0.33176,2.040702 l -0.0248,0.03359 c -0.48796,0.641961 -1.40298,0.770271 -2.04897,0.287321 -0.64599,-0.482868 -0.78099,-1.39601 -0.30231,-2.044837 0.27451,-0.371973 0.70842,-0.592953 1.17099,-0.596346 z m 60.325,0 c 0.31352,-0.0024 0.61956,0.09561 0.87333,0.27957 0.65315,0.473545 0.80132,1.384974 0.33176,2.040702 l -0.0248,0.03359 c -0.48795,0.64196 -1.40298,0.770271 -2.04897,0.287321 -0.64599,-0.482868 -0.78099,-1.39601 -0.30231,-2.044837 0.27451,-0.371973 0.70843,-0.592953 1.17099,-0.596346 z m -60.325,17.991667 c 0.31352,-0.0024 0.61956,0.09561 0.87333,0.279569 0.65315,0.473546 0.80133,1.384975 0.33176,2.040702 l -0.0248,0.03359 c -0.48796,0.641961 -1.40298,0.770271 -2.04897,0.287322 -0.64599,-0.482868 -0.78099,-1.396008 -0.30231,-2.044835 0.27451,-0.371975 0.70842,-0.592955 1.17099,-0.596347 z m 60.325,0 c 0.31352,-0.0024 0.61956,0.09561 0.87333,0.279569 0.65315,0.473546 0.80133,1.384975 0.33176,2.040702 l -0.0248,0.03359 c -0.48795,0.641961 -1.40298,0.770271 -2.04897,0.287322 -0.64598,-0.482868 -0.78098,-1.396008 -0.30231,-2.044835 0.27451,-0.371975 0.70843,-0.592955 1.17099,-0.596347 z m 15.00477,64.327336 c 0.3021,8e-4 0.5963,0.0967 0.84077,0.2744 0.63912,0.46425 0.78428,1.35783 0.32505,2.00092 l -0.0243,0.0331 c -0.4774,0.62959 -1.37278,0.7556 -2.00505,0.28215 -0.63243,-0.47346 -0.76468,-1.36917 -0.2961,-2.00556 0.27146,-0.36871 0.70209,-0.58594 1.15962,-0.58498 z m -90.0544498,5.3e-4 c 0.30228,5.3e-4 0.59667,0.0966 0.84129,0.2744 0.63894,0.46441 0.78387,1.35797 0.32453,2.00091 l -0.0243,0.0326 c -0.47724,0.62977 -1.37265,0.756 -2.00505,0.28267 -0.63244,-0.47346 -0.76468,-1.36917 -0.2961,-2.00556 0.27146,-0.36871 0.70209,-0.58594 1.15962,-0.58498 z"
       sodipodi:nodetypes="cccsssscccccccccccccccccccccccccccccccccccccsccccccsc" />
  </g>
  <g
     id="silkscreen0"
     transform="translate(-0.50866877,0.24728996)">
    <path
       id="outline_1_"
       style="fill:none;fill-opacity:0.546559;stroke:#000000;stroke-width:0.4;stroke-linejoin:round;stroke-miterlimit:4;stroke-dasharray:none;stroke-dashoffset:11.1005;stroke-opacity:1;paint-order:markers stroke fill"
       d="M 17.456485,-0.04728996 V 44.700365 H 0.708674 v 47.750306 c 0,2.86321 4.08779,7.39672 6.95099,7.39672 h 86.438143 c 2.8632,0 6.505543,-4.0878 6.505543,-6.951 V 44.698298 H 84.055517 V -0.04728996 Z m 3.03186,12.02717096 c 0.31352,-0.0024 0.61956,0.09561 0.87333,0.27957 0.653152,0.473545 0.801326,1.384975 0.331763,2.040702 l -0.0248,0.03359 c -0.48796,0.641961 -1.40298,0.770271 -2.04897,0.287321 -0.64599,-0.482868 -0.78099,-1.39601 -0.30231,-2.044837 0.27451,-0.371973 0.70842,-0.592953 1.17099,-0.596346 z m 60.324992,0 c 0.31353,-0.0024 0.61957,0.09561 0.87334,0.27957 0.65315,0.473545 0.80132,1.384974 0.33176,2.040702 l -0.0248,0.03359 c -0.48796,0.64196 -1.40298,0.770271 -2.04897,0.287321 -0.64599,-0.482868 -0.78099,-1.39601 -0.30231,-2.044837 0.27451,-0.371973 0.70842,-0.592953 1.17099,-0.596346 z M 20.488345,29.971548 c 0.31352,-0.0024 0.61956,0.09561 0.87333,0.279569 0.653152,0.473546 0.801326,1.384975 0.331763,2.040702 l -0.0248,0.03359 c -0.48796,0.641961 -1.40298,0.770271 -2.04897,0.287322 -0.64599,-0.482868 -0.78099,-1.396008 -0.30231,-2.044835 0.27451,-0.371975 0.70842,-0.592955 1.17099,-0.596347 z m 60.324992,0 c 0.31353,-0.0024 0.61957,0.09561 0.87334,0.279569 0.65315,0.473546 0.80132,1.384975 0.33176,2.040702 l -0.0248,0.03359 c -0.48796,0.641961 -1.40298,0.770271 -2.04897,0.287322 -0.64599,-0.482868 -0.78098,-1.396008 -0.30231,-2.044835 0.27451,-0.371975 0.70842,-0.592955 1.17099,-0.596347 z m 15.00477,64.327343 c 0.30211,7.9e-4 0.5963,0.0967 0.84078,0.2744 0.63911,0.46425 0.78427,1.35783 0.32504,2.00091 l -0.0243,0.0331 c -0.47739,0.6296 -1.37278,0.7556 -2.00504,0.28216 -0.63244,-0.47347 -0.76468,-1.36917 -0.29611,-2.00557 0.27147,-0.3687 0.7021,-0.58594 1.15962,-0.58497 z m -90.054443,5.3e-4 c 0.30228,5.3e-4 0.59667,0.0966 0.84129,0.2744 0.63894,0.46441 0.78387,1.35796 0.32453,2.00091 l -0.0243,0.0326 c -0.47724,0.62977 -1.37265,0.756 -2.00505,0.28267 -0.63244,-0.47346 -0.76468,-1.36916 -0.2961,-2.00556 0.27146,-0.3687 0.70209,-0.58594 1.15962,-0.58497 z"
       sodipodi:nodetypes="cccsssscccccccccccccccccccccccccccccccccccccsccccccsc" />
  </g>
</svg>
